<mxfile host="Electron" modified="2023-08-22T11:11:11.679Z" agent="Mozilla/5.0 (Windows NT 10.0; Win64; x64) AppleWebKit/537.36 (KHTML, like Gecko) draw.io/21.6.8 Chrome/114.0.5735.289 Electron/25.5.0 Safari/537.36" etag="l1qDa0rBxrwaXBgYHJ_L" version="21.6.8" type="device">
  <diagram name="Page-1" id="wqaeOR15me9pjiZD3DkU">
    <mxGraphModel dx="1050" dy="621" grid="1" gridSize="10" guides="1" tooltips="1" connect="1" arrows="1" fold="1" page="1" pageScale="1" pageWidth="850" pageHeight="1100" math="0" shadow="0">
      <root>
        <mxCell id="0" />
        <mxCell id="1" parent="0" />
        <mxCell id="2u-OifeB6553GZh3_2Z_-186" value="" style="shape=table;startSize=0;container=1;collapsible=0;childLayout=tableLayout;" parent="1" vertex="1">
          <mxGeometry x="240" y="40" width="450" height="450" as="geometry" />
        </mxCell>
        <mxCell id="2u-OifeB6553GZh3_2Z_-187" value="" style="shape=tableRow;horizontal=0;startSize=0;swimlaneHead=0;swimlaneBody=0;strokeColor=inherit;top=0;left=0;bottom=0;right=0;collapsible=0;dropTarget=0;fillColor=none;points=[[0,0.5],[1,0.5]];portConstraint=eastwest;" parent="2u-OifeB6553GZh3_2Z_-186" vertex="1">
          <mxGeometry width="450" height="90" as="geometry" />
        </mxCell>
        <mxCell id="2u-OifeB6553GZh3_2Z_-188" value="" style="shape=partialRectangle;html=1;whiteSpace=wrap;connectable=0;strokeColor=inherit;overflow=hidden;fillColor=none;top=0;left=0;bottom=0;right=0;pointerEvents=1;" parent="2u-OifeB6553GZh3_2Z_-187" vertex="1">
          <mxGeometry width="90" height="90" as="geometry">
            <mxRectangle width="90" height="90" as="alternateBounds" />
          </mxGeometry>
        </mxCell>
        <mxCell id="2u-OifeB6553GZh3_2Z_-189" value="" style="shape=partialRectangle;html=1;whiteSpace=wrap;connectable=0;strokeColor=#C73500;overflow=hidden;fillColor=#999999;top=0;left=0;bottom=0;right=0;pointerEvents=1;fontColor=#000000;" parent="2u-OifeB6553GZh3_2Z_-187" vertex="1">
          <mxGeometry x="90" width="90" height="90" as="geometry">
            <mxRectangle width="90" height="90" as="alternateBounds" />
          </mxGeometry>
        </mxCell>
        <mxCell id="2u-OifeB6553GZh3_2Z_-190" value="" style="shape=partialRectangle;html=1;whiteSpace=wrap;connectable=0;strokeColor=inherit;overflow=hidden;fillColor=none;top=0;left=0;bottom=0;right=0;pointerEvents=1;" parent="2u-OifeB6553GZh3_2Z_-187" vertex="1">
          <mxGeometry x="180" width="90" height="90" as="geometry">
            <mxRectangle width="90" height="90" as="alternateBounds" />
          </mxGeometry>
        </mxCell>
        <mxCell id="2u-OifeB6553GZh3_2Z_-191" value="" style="shape=partialRectangle;html=1;whiteSpace=wrap;connectable=0;strokeColor=inherit;overflow=hidden;fillColor=none;top=0;left=0;bottom=0;right=0;pointerEvents=1;" parent="2u-OifeB6553GZh3_2Z_-187" vertex="1">
          <mxGeometry x="270" width="90" height="90" as="geometry">
            <mxRectangle width="90" height="90" as="alternateBounds" />
          </mxGeometry>
        </mxCell>
        <mxCell id="2u-OifeB6553GZh3_2Z_-192" value="" style="shape=partialRectangle;html=1;whiteSpace=wrap;connectable=0;strokeColor=inherit;overflow=hidden;fillColor=none;top=0;left=0;bottom=0;right=0;pointerEvents=1;" parent="2u-OifeB6553GZh3_2Z_-187" vertex="1">
          <mxGeometry x="360" width="90" height="90" as="geometry">
            <mxRectangle width="90" height="90" as="alternateBounds" />
          </mxGeometry>
        </mxCell>
        <mxCell id="2u-OifeB6553GZh3_2Z_-193" value="" style="shape=tableRow;horizontal=0;startSize=0;swimlaneHead=0;swimlaneBody=0;strokeColor=inherit;top=0;left=0;bottom=0;right=0;collapsible=0;dropTarget=0;fillColor=none;points=[[0,0.5],[1,0.5]];portConstraint=eastwest;" parent="2u-OifeB6553GZh3_2Z_-186" vertex="1">
          <mxGeometry y="90" width="450" height="90" as="geometry" />
        </mxCell>
        <mxCell id="2u-OifeB6553GZh3_2Z_-194" value="" style="shape=partialRectangle;html=1;whiteSpace=wrap;connectable=0;strokeColor=inherit;overflow=hidden;fillColor=none;top=0;left=0;bottom=0;right=0;pointerEvents=1;" parent="2u-OifeB6553GZh3_2Z_-193" vertex="1">
          <mxGeometry width="90" height="90" as="geometry">
            <mxRectangle width="90" height="90" as="alternateBounds" />
          </mxGeometry>
        </mxCell>
        <mxCell id="2u-OifeB6553GZh3_2Z_-195" value="" style="shape=partialRectangle;html=1;whiteSpace=wrap;connectable=0;strokeColor=inherit;overflow=hidden;fillColor=none;top=0;left=0;bottom=0;right=0;pointerEvents=1;" parent="2u-OifeB6553GZh3_2Z_-193" vertex="1">
          <mxGeometry x="90" width="90" height="90" as="geometry">
            <mxRectangle width="90" height="90" as="alternateBounds" />
          </mxGeometry>
        </mxCell>
        <mxCell id="2u-OifeB6553GZh3_2Z_-196" value="" style="shape=partialRectangle;html=1;whiteSpace=wrap;connectable=0;strokeColor=inherit;overflow=hidden;fillColor=none;top=0;left=0;bottom=0;right=0;pointerEvents=1;" parent="2u-OifeB6553GZh3_2Z_-193" vertex="1">
          <mxGeometry x="180" width="90" height="90" as="geometry">
            <mxRectangle width="90" height="90" as="alternateBounds" />
          </mxGeometry>
        </mxCell>
        <mxCell id="2u-OifeB6553GZh3_2Z_-197" value="" style="shape=partialRectangle;html=1;whiteSpace=wrap;connectable=0;strokeColor=inherit;overflow=hidden;fillColor=none;top=0;left=0;bottom=0;right=0;pointerEvents=1;" parent="2u-OifeB6553GZh3_2Z_-193" vertex="1">
          <mxGeometry x="270" width="90" height="90" as="geometry">
            <mxRectangle width="90" height="90" as="alternateBounds" />
          </mxGeometry>
        </mxCell>
        <mxCell id="2u-OifeB6553GZh3_2Z_-198" value="" style="shape=partialRectangle;html=1;whiteSpace=wrap;connectable=0;strokeColor=inherit;overflow=hidden;fillColor=none;top=0;left=0;bottom=0;right=0;pointerEvents=1;" parent="2u-OifeB6553GZh3_2Z_-193" vertex="1">
          <mxGeometry x="360" width="90" height="90" as="geometry">
            <mxRectangle width="90" height="90" as="alternateBounds" />
          </mxGeometry>
        </mxCell>
        <mxCell id="2u-OifeB6553GZh3_2Z_-199" value="" style="shape=tableRow;horizontal=0;startSize=0;swimlaneHead=0;swimlaneBody=0;strokeColor=inherit;top=0;left=0;bottom=0;right=0;collapsible=0;dropTarget=0;fillColor=none;points=[[0,0.5],[1,0.5]];portConstraint=eastwest;" parent="2u-OifeB6553GZh3_2Z_-186" vertex="1">
          <mxGeometry y="180" width="450" height="90" as="geometry" />
        </mxCell>
        <mxCell id="2u-OifeB6553GZh3_2Z_-200" value="" style="shape=partialRectangle;html=1;whiteSpace=wrap;connectable=0;strokeColor=inherit;overflow=hidden;fillColor=none;top=0;left=0;bottom=0;right=0;pointerEvents=1;" parent="2u-OifeB6553GZh3_2Z_-199" vertex="1">
          <mxGeometry width="90" height="90" as="geometry">
            <mxRectangle width="90" height="90" as="alternateBounds" />
          </mxGeometry>
        </mxCell>
        <mxCell id="2u-OifeB6553GZh3_2Z_-201" value="" style="shape=partialRectangle;html=1;whiteSpace=wrap;connectable=0;strokeColor=inherit;overflow=hidden;fillColor=none;top=0;left=0;bottom=0;right=0;pointerEvents=1;" parent="2u-OifeB6553GZh3_2Z_-199" vertex="1">
          <mxGeometry x="90" width="90" height="90" as="geometry">
            <mxRectangle width="90" height="90" as="alternateBounds" />
          </mxGeometry>
        </mxCell>
        <mxCell id="2u-OifeB6553GZh3_2Z_-202" value="" style="shape=partialRectangle;html=1;whiteSpace=wrap;connectable=0;strokeColor=inherit;overflow=hidden;fillColor=none;top=0;left=0;bottom=0;right=0;pointerEvents=1;" parent="2u-OifeB6553GZh3_2Z_-199" vertex="1">
          <mxGeometry x="180" width="90" height="90" as="geometry">
            <mxRectangle width="90" height="90" as="alternateBounds" />
          </mxGeometry>
        </mxCell>
        <mxCell id="2u-OifeB6553GZh3_2Z_-203" value="" style="shape=partialRectangle;html=1;whiteSpace=wrap;connectable=0;strokeColor=inherit;overflow=hidden;fillColor=none;top=0;left=0;bottom=0;right=0;pointerEvents=1;" parent="2u-OifeB6553GZh3_2Z_-199" vertex="1">
          <mxGeometry x="270" width="90" height="90" as="geometry">
            <mxRectangle width="90" height="90" as="alternateBounds" />
          </mxGeometry>
        </mxCell>
        <mxCell id="2u-OifeB6553GZh3_2Z_-204" value="" style="shape=partialRectangle;html=1;whiteSpace=wrap;connectable=0;strokeColor=inherit;overflow=hidden;fillColor=none;top=0;left=0;bottom=0;right=0;pointerEvents=1;" parent="2u-OifeB6553GZh3_2Z_-199" vertex="1">
          <mxGeometry x="360" width="90" height="90" as="geometry">
            <mxRectangle width="90" height="90" as="alternateBounds" />
          </mxGeometry>
        </mxCell>
        <mxCell id="2u-OifeB6553GZh3_2Z_-226" value="" style="shape=waypoint;sketch=0;size=6;pointerEvents=1;points=[];fillColor=none;resizable=0;rotatable=0;perimeter=centerPerimeter;snapToPoint=1;" parent="2u-OifeB6553GZh3_2Z_-199" vertex="1">
          <mxGeometry x="450" height="90" as="geometry">
            <mxRectangle width="NaN" height="90" as="alternateBounds" />
          </mxGeometry>
        </mxCell>
        <mxCell id="2u-OifeB6553GZh3_2Z_-205" value="" style="shape=tableRow;horizontal=0;startSize=0;swimlaneHead=0;swimlaneBody=0;strokeColor=inherit;top=0;left=0;bottom=0;right=0;collapsible=0;dropTarget=0;fillColor=none;points=[[0,0.5],[1,0.5]];portConstraint=eastwest;" parent="2u-OifeB6553GZh3_2Z_-186" vertex="1">
          <mxGeometry y="270" width="450" height="90" as="geometry" />
        </mxCell>
        <mxCell id="2u-OifeB6553GZh3_2Z_-206" value="" style="shape=partialRectangle;html=1;whiteSpace=wrap;connectable=0;strokeColor=inherit;overflow=hidden;fillColor=none;top=0;left=0;bottom=0;right=0;pointerEvents=1;" parent="2u-OifeB6553GZh3_2Z_-205" vertex="1">
          <mxGeometry width="90" height="90" as="geometry">
            <mxRectangle width="90" height="90" as="alternateBounds" />
          </mxGeometry>
        </mxCell>
        <mxCell id="2u-OifeB6553GZh3_2Z_-207" value="" style="shape=partialRectangle;html=1;whiteSpace=wrap;connectable=0;strokeColor=#d79b00;overflow=hidden;fillColor=#ffcd28;top=0;left=0;bottom=0;right=0;pointerEvents=1;fillStyle=auto;gradientColor=#ffa500;" parent="2u-OifeB6553GZh3_2Z_-205" vertex="1">
          <mxGeometry x="90" width="90" height="90" as="geometry">
            <mxRectangle width="90" height="90" as="alternateBounds" />
          </mxGeometry>
        </mxCell>
        <mxCell id="2u-OifeB6553GZh3_2Z_-208" value="" style="shape=partialRectangle;html=1;whiteSpace=wrap;connectable=0;strokeColor=inherit;overflow=hidden;fillColor=none;top=0;left=0;bottom=0;right=0;pointerEvents=1;" parent="2u-OifeB6553GZh3_2Z_-205" vertex="1">
          <mxGeometry x="180" width="90" height="90" as="geometry">
            <mxRectangle width="90" height="90" as="alternateBounds" />
          </mxGeometry>
        </mxCell>
        <mxCell id="2u-OifeB6553GZh3_2Z_-209" value="" style="shape=partialRectangle;html=1;whiteSpace=wrap;connectable=0;strokeColor=inherit;overflow=hidden;fillColor=none;top=0;left=0;bottom=0;right=0;pointerEvents=1;" parent="2u-OifeB6553GZh3_2Z_-205" vertex="1">
          <mxGeometry x="270" width="90" height="90" as="geometry">
            <mxRectangle width="90" height="90" as="alternateBounds" />
          </mxGeometry>
        </mxCell>
        <mxCell id="2u-OifeB6553GZh3_2Z_-210" value="" style="shape=partialRectangle;html=1;whiteSpace=wrap;connectable=0;strokeColor=inherit;overflow=hidden;fillColor=#999999;top=0;left=0;bottom=0;right=0;pointerEvents=1;" parent="2u-OifeB6553GZh3_2Z_-205" vertex="1">
          <mxGeometry x="360" width="90" height="90" as="geometry">
            <mxRectangle width="90" height="90" as="alternateBounds" />
          </mxGeometry>
        </mxCell>
        <mxCell id="2u-OifeB6553GZh3_2Z_-211" value="" style="shape=tableRow;horizontal=0;startSize=0;swimlaneHead=0;swimlaneBody=0;strokeColor=inherit;top=0;left=0;bottom=0;right=0;collapsible=0;dropTarget=0;fillColor=none;points=[[0,0.5],[1,0.5]];portConstraint=eastwest;" parent="2u-OifeB6553GZh3_2Z_-186" vertex="1">
          <mxGeometry y="360" width="450" height="90" as="geometry" />
        </mxCell>
        <mxCell id="2u-OifeB6553GZh3_2Z_-212" value="" style="shape=partialRectangle;html=1;whiteSpace=wrap;connectable=0;strokeColor=inherit;overflow=hidden;fillColor=none;top=0;left=0;bottom=0;right=0;pointerEvents=1;" parent="2u-OifeB6553GZh3_2Z_-211" vertex="1">
          <mxGeometry width="90" height="90" as="geometry">
            <mxRectangle width="90" height="90" as="alternateBounds" />
          </mxGeometry>
        </mxCell>
        <mxCell id="2u-OifeB6553GZh3_2Z_-213" value="" style="shape=partialRectangle;html=1;whiteSpace=wrap;connectable=0;strokeColor=inherit;overflow=hidden;fillColor=none;top=0;left=0;bottom=0;right=0;pointerEvents=1;" parent="2u-OifeB6553GZh3_2Z_-211" vertex="1">
          <mxGeometry x="90" width="90" height="90" as="geometry">
            <mxRectangle width="90" height="90" as="alternateBounds" />
          </mxGeometry>
        </mxCell>
        <mxCell id="2u-OifeB6553GZh3_2Z_-214" value="" style="shape=partialRectangle;html=1;whiteSpace=wrap;connectable=0;strokeColor=inherit;overflow=hidden;fillColor=none;top=0;left=0;bottom=0;right=0;pointerEvents=1;" parent="2u-OifeB6553GZh3_2Z_-211" vertex="1">
          <mxGeometry x="180" width="90" height="90" as="geometry">
            <mxRectangle width="90" height="90" as="alternateBounds" />
          </mxGeometry>
        </mxCell>
        <mxCell id="2u-OifeB6553GZh3_2Z_-215" value="" style="shape=partialRectangle;html=1;whiteSpace=wrap;connectable=0;strokeColor=inherit;overflow=hidden;fillColor=none;top=0;left=0;bottom=0;right=0;pointerEvents=1;" parent="2u-OifeB6553GZh3_2Z_-211" vertex="1">
          <mxGeometry x="270" width="90" height="90" as="geometry">
            <mxRectangle width="90" height="90" as="alternateBounds" />
          </mxGeometry>
        </mxCell>
        <mxCell id="2u-OifeB6553GZh3_2Z_-216" value="" style="shape=partialRectangle;html=1;whiteSpace=wrap;connectable=0;strokeColor=inherit;overflow=hidden;fillColor=none;top=0;left=0;bottom=0;right=0;pointerEvents=1;" parent="2u-OifeB6553GZh3_2Z_-211" vertex="1">
          <mxGeometry x="360" width="90" height="90" as="geometry">
            <mxRectangle width="90" height="90" as="alternateBounds" />
          </mxGeometry>
        </mxCell>
        <mxCell id="2u-OifeB6553GZh3_2Z_-253" style="edgeStyle=orthogonalEdgeStyle;rounded=0;orthogonalLoop=1;jettySize=auto;html=1;entryX=0.79;entryY=0.77;entryDx=0;entryDy=0;entryPerimeter=0;fillColor=#1ba1e2;strokeColor=#006EAF;strokeWidth=3;" parent="1" source="2u-OifeB6553GZh3_2Z_-217" target="2u-OifeB6553GZh3_2Z_-241" edge="1">
          <mxGeometry relative="1" as="geometry" />
        </mxCell>
        <mxCell id="2u-OifeB6553GZh3_2Z_-217" value="&lt;font face=&quot;Comic Sans MS&quot; style=&quot;font-size: 18px;&quot;&gt;Start&lt;/font&gt;" style="text;html=1;strokeColor=none;fillColor=none;align=center;verticalAlign=middle;whiteSpace=wrap;rounded=0;fontSize=18;fontColor=#050505;" parent="1" vertex="1">
          <mxGeometry x="345" y="340" width="60" height="30" as="geometry" />
        </mxCell>
        <mxCell id="2u-OifeB6553GZh3_2Z_-218" value="" style="shape=partialRectangle;html=1;whiteSpace=wrap;connectable=0;strokeColor=#82b366;overflow=hidden;fillColor=#d5e8d4;top=0;left=0;bottom=0;right=0;pointerEvents=1;fillStyle=auto;gradientColor=#97d077;" parent="1" vertex="1">
          <mxGeometry x="600" y="40" width="90" height="90" as="geometry">
            <mxRectangle width="90" height="90" as="alternateBounds" />
          </mxGeometry>
        </mxCell>
        <mxCell id="2u-OifeB6553GZh3_2Z_-219" value="&lt;font face=&quot;Comic Sans MS&quot; style=&quot;font-size: 18px;&quot;&gt;Goal&lt;/font&gt;" style="text;html=1;align=center;verticalAlign=middle;whiteSpace=wrap;rounded=0;fontSize=18;fontColor=#0D0D0D;" parent="1" vertex="1">
          <mxGeometry x="615" y="70" width="60" height="30" as="geometry" />
        </mxCell>
        <mxCell id="2u-OifeB6553GZh3_2Z_-220" value="" style="shape=image;html=1;verticalAlign=top;verticalLabelPosition=bottom;labelBackgroundColor=#ffffff;imageAspect=0;aspect=fixed;image=https://cdn4.iconfinder.com/data/icons/social-media-and-logos-11/32/Logo_reddit_robot-128.png" parent="1" vertex="1">
          <mxGeometry x="350" y="160" width="50" height="50" as="geometry" />
        </mxCell>
        <mxCell id="2u-OifeB6553GZh3_2Z_-221" value="" style="shape=singleArrow;direction=north;whiteSpace=wrap;html=1;arrowWidth=0.41333211263020836;arrowSize=0.4560000610351562;fillColor=#FFA6A6;" parent="1" vertex="1">
          <mxGeometry x="360" y="90" width="30" height="50" as="geometry" />
        </mxCell>
        <mxCell id="2u-OifeB6553GZh3_2Z_-231" value="" style="shape=singleArrow;direction=north;whiteSpace=wrap;html=1;arrowWidth=0.41333211263020836;arrowSize=0.4560000610351562;rotation=-90;fillColor=#4cbd4c;strokeColor=#36393d;" parent="1" vertex="1">
          <mxGeometry x="290" y="150" width="30" height="50" as="geometry" />
        </mxCell>
        <mxCell id="2u-OifeB6553GZh3_2Z_-254" style="edgeStyle=orthogonalEdgeStyle;rounded=0;orthogonalLoop=1;jettySize=auto;html=1;entryX=0.81;entryY=0.97;entryDx=0;entryDy=0;entryPerimeter=0;fillColor=#1ba1e2;strokeColor=#006EAF;strokeWidth=3;" parent="1" source="2u-OifeB6553GZh3_2Z_-241" target="2u-OifeB6553GZh3_2Z_-242" edge="1">
          <mxGeometry relative="1" as="geometry" />
        </mxCell>
        <mxCell id="2u-OifeB6553GZh3_2Z_-241" value="" style="shape=waypoint;sketch=0;fillStyle=solid;size=6;pointerEvents=1;points=[];fillColor=#1ba1e2;resizable=0;rotatable=0;perimeter=centerPerimeter;snapToPoint=1;fontColor=#ffffff;strokeColor=#006EAF;strokeWidth=3;" parent="1" vertex="1">
          <mxGeometry x="455" y="345" width="20" height="20" as="geometry" />
        </mxCell>
        <mxCell id="2u-OifeB6553GZh3_2Z_-256" style="edgeStyle=orthogonalEdgeStyle;rounded=0;orthogonalLoop=1;jettySize=auto;html=1;entryX=0.49;entryY=0.82;entryDx=0;entryDy=0;entryPerimeter=0;fillColor=#1ba1e2;strokeColor=#006EAF;strokeWidth=3;" parent="1" source="2u-OifeB6553GZh3_2Z_-242" target="2u-OifeB6553GZh3_2Z_-250" edge="1">
          <mxGeometry relative="1" as="geometry" />
        </mxCell>
        <mxCell id="2u-OifeB6553GZh3_2Z_-242" value="" style="shape=waypoint;sketch=0;fillStyle=solid;size=6;pointerEvents=1;points=[];fillColor=#1ba1e2;resizable=0;rotatable=0;perimeter=centerPerimeter;snapToPoint=1;fontColor=#ffffff;strokeColor=#006EAF;strokeWidth=3;" parent="1" vertex="1">
          <mxGeometry x="545" y="345" width="20" height="20" as="geometry" />
        </mxCell>
        <mxCell id="2u-OifeB6553GZh3_2Z_-258" style="edgeStyle=orthogonalEdgeStyle;rounded=0;orthogonalLoop=1;jettySize=auto;html=1;fillColor=#1ba1e2;strokeColor=#006EAF;strokeWidth=3;" parent="1" source="2u-OifeB6553GZh3_2Z_-250" target="2u-OifeB6553GZh3_2Z_-251" edge="1">
          <mxGeometry relative="1" as="geometry" />
        </mxCell>
        <mxCell id="2u-OifeB6553GZh3_2Z_-250" value="" style="shape=waypoint;sketch=0;fillStyle=solid;size=6;pointerEvents=1;points=[];fillColor=#1ba1e2;resizable=0;rotatable=0;perimeter=centerPerimeter;snapToPoint=1;fontColor=#ffffff;strokeColor=#006EAF;strokeWidth=3;" parent="1" vertex="1">
          <mxGeometry x="545" y="260" width="20" height="20" as="geometry" />
        </mxCell>
        <mxCell id="2u-OifeB6553GZh3_2Z_-259" style="edgeStyle=orthogonalEdgeStyle;rounded=0;orthogonalLoop=1;jettySize=auto;html=1;entryX=0.27;entryY=0.89;entryDx=0;entryDy=0;entryPerimeter=0;fillColor=#1ba1e2;strokeColor=#006EAF;strokeWidth=3;" parent="1" source="2u-OifeB6553GZh3_2Z_-251" target="2u-OifeB6553GZh3_2Z_-252" edge="1">
          <mxGeometry relative="1" as="geometry" />
        </mxCell>
        <mxCell id="2u-OifeB6553GZh3_2Z_-251" value="" style="shape=waypoint;sketch=0;fillStyle=solid;size=6;pointerEvents=1;points=[];fillColor=#1ba1e2;resizable=0;rotatable=0;perimeter=centerPerimeter;snapToPoint=1;fontColor=#ffffff;strokeColor=#006EAF;strokeWidth=3;" parent="1" vertex="1">
          <mxGeometry x="635" y="260" width="20" height="20" as="geometry" />
        </mxCell>
        <mxCell id="2u-OifeB6553GZh3_2Z_-260" style="edgeStyle=orthogonalEdgeStyle;rounded=0;orthogonalLoop=1;jettySize=auto;html=1;entryX=0.5;entryY=1;entryDx=0;entryDy=0;fillColor=#1ba1e2;strokeColor=#006EAF;strokeWidth=3;" parent="1" source="2u-OifeB6553GZh3_2Z_-252" target="2u-OifeB6553GZh3_2Z_-219" edge="1">
          <mxGeometry relative="1" as="geometry" />
        </mxCell>
        <mxCell id="2u-OifeB6553GZh3_2Z_-291" style="edgeStyle=orthogonalEdgeStyle;rounded=0;orthogonalLoop=1;jettySize=auto;html=1;entryX=0;entryY=0.5;entryDx=0;entryDy=0;" parent="1" source="2u-OifeB6553GZh3_2Z_-252" target="2u-OifeB6553GZh3_2Z_-292" edge="1">
          <mxGeometry relative="1" as="geometry">
            <mxPoint x="710" y="175" as="targetPoint" />
          </mxGeometry>
        </mxCell>
        <mxCell id="2u-OifeB6553GZh3_2Z_-252" value="" style="shape=waypoint;sketch=0;fillStyle=solid;size=6;pointerEvents=1;points=[];fillColor=#1ba1e2;resizable=0;rotatable=0;perimeter=centerPerimeter;snapToPoint=1;fontColor=#ffffff;strokeColor=#006EAF;strokeWidth=3;" parent="1" vertex="1">
          <mxGeometry x="635" y="165" width="20" height="20" as="geometry" />
        </mxCell>
        <mxCell id="2u-OifeB6553GZh3_2Z_-261" value="&lt;font face=&quot;Comic Sans MS&quot;&gt;Robot&lt;/font&gt;" style="text;html=1;strokeColor=none;fillColor=none;align=center;verticalAlign=middle;whiteSpace=wrap;rounded=0;fontSize=18;" parent="1" vertex="1">
          <mxGeometry x="347.5" y="145" width="55" height="20" as="geometry" />
        </mxCell>
        <mxCell id="2u-OifeB6553GZh3_2Z_-263" value="" style="shape=mxgraph.mockup.markup.redX;fillColor=#ff0000;html=1;shadow=0;whiteSpace=wrap;strokeColor=none;" parent="1" vertex="1">
          <mxGeometry x="355" y="110" width="40" height="20" as="geometry" />
        </mxCell>
        <mxCell id="2u-OifeB6553GZh3_2Z_-264" value="" style="shape=singleArrow;direction=north;whiteSpace=wrap;html=1;arrowWidth=0.41333211263020836;arrowSize=0.4560000610351562;rotation=-180;fillColor=#4cbd4c;strokeColor=#36393d;" parent="1" vertex="1">
          <mxGeometry x="360" y="210" width="30" height="50" as="geometry" />
        </mxCell>
        <mxCell id="2u-OifeB6553GZh3_2Z_-265" value="" style="shape=singleArrow;direction=north;whiteSpace=wrap;html=1;arrowWidth=0.41333211263020836;arrowSize=0.4560000610351562;rotation=90;fillColor=#4cbd4c;strokeColor=#36393d;" parent="1" vertex="1">
          <mxGeometry x="420" y="150" width="30" height="50" as="geometry" />
        </mxCell>
        <mxCell id="2u-OifeB6553GZh3_2Z_-274" value="&lt;font face=&quot;Comic Sans MS&quot; style=&quot;font-size: 18px;&quot;&gt;Wall&lt;/font&gt;" style="text;html=1;strokeColor=none;fillColor=none;align=center;verticalAlign=middle;whiteSpace=wrap;rounded=0;fontSize=18;" parent="1" vertex="1">
          <mxGeometry x="345" y="60" width="60" height="30" as="geometry" />
        </mxCell>
        <mxCell id="2u-OifeB6553GZh3_2Z_-281" value="" style="shape=partialRectangle;html=1;whiteSpace=wrap;connectable=0;strokeColor=inherit;overflow=hidden;fillColor=#999999;top=0;left=0;bottom=0;right=0;pointerEvents=1;" parent="1" vertex="1">
          <mxGeometry x="420" y="220" width="90" height="90" as="geometry">
            <mxRectangle width="90" height="90" as="alternateBounds" />
          </mxGeometry>
        </mxCell>
        <mxCell id="2u-OifeB6553GZh3_2Z_-282" value="" style="shape=partialRectangle;html=1;whiteSpace=wrap;connectable=0;strokeColor=inherit;overflow=hidden;fillColor=#999999;top=0;left=0;bottom=0;right=0;pointerEvents=1;" parent="1" vertex="1">
          <mxGeometry x="240" y="400" width="90" height="90" as="geometry">
            <mxRectangle width="90" height="90" as="alternateBounds" />
          </mxGeometry>
        </mxCell>
        <mxCell id="2u-OifeB6553GZh3_2Z_-284" value="&lt;font face=&quot;Comic Sans MS&quot;&gt;f&lt;sub&gt;4,2&lt;/sub&gt;&lt;br&gt;&lt;/font&gt;" style="text;html=1;strokeColor=none;fillColor=none;align=center;verticalAlign=middle;whiteSpace=wrap;rounded=0;fontSize=18;" parent="1" vertex="1">
          <mxGeometry x="510" y="130" width="90" height="90" as="geometry" />
        </mxCell>
        <mxCell id="2u-OifeB6553GZh3_2Z_-292" value="Reward = w∙f&lt;br&gt;= (f&lt;sub&gt;1&lt;/sub&gt;*w&lt;sub&gt;1&lt;/sub&gt;+...)" style="text;html=1;strokeColor=none;fillColor=none;align=center;verticalAlign=middle;whiteSpace=wrap;rounded=0;fontSize=18;fontFamily=Comic Sans MS;" parent="1" vertex="1">
          <mxGeometry x="710" y="140" width="120" height="70" as="geometry" />
        </mxCell>
        <mxCell id="2u-OifeB6553GZh3_2Z_-293" value="Features: f = (f&lt;sub&gt;1&lt;/sub&gt;, f&lt;sub&gt;2&lt;/sub&gt;, ..., f&lt;sub&gt;n&lt;/sub&gt;), different in each cell&lt;br&gt;Reward function: w = (w&lt;sub&gt;1&lt;/sub&gt;, w&lt;sub&gt;2&lt;/sub&gt;, ..., w&lt;sub&gt;n&lt;/sub&gt;), the same for all cells" style="text;html=1;strokeColor=none;fillColor=none;align=center;verticalAlign=middle;whiteSpace=wrap;rounded=0;fontSize=18;fontFamily=Comic Sans MS;" parent="1" vertex="1">
          <mxGeometry x="215" y="500" width="500" height="70" as="geometry" />
        </mxCell>
        <mxCell id="2u-OifeB6553GZh3_2Z_-294" value="&lt;font face=&quot;Comic Sans MS&quot;&gt;f&lt;sub&gt;4,1&lt;/sub&gt;&lt;br&gt;&lt;/font&gt;" style="text;html=1;strokeColor=none;fillColor=none;align=center;verticalAlign=middle;whiteSpace=wrap;rounded=0;fontSize=18;" parent="1" vertex="1">
          <mxGeometry x="510" y="40" width="90" height="90" as="geometry" />
        </mxCell>
        <mxCell id="2u-OifeB6553GZh3_2Z_-295" value="&lt;font face=&quot;Comic Sans MS&quot;&gt;f&lt;sub&gt;3,1&lt;/sub&gt;&lt;br&gt;&lt;/font&gt;" style="text;html=1;strokeColor=none;fillColor=none;align=center;verticalAlign=middle;whiteSpace=wrap;rounded=0;fontSize=18;" parent="1" vertex="1">
          <mxGeometry x="420" y="40" width="90" height="90" as="geometry" />
        </mxCell>
      </root>
    </mxGraphModel>
  </diagram>
</mxfile>
